<?xml version="1.0" standalone="no"?>
<!DOCTYPE svg PUBLIC "-//W3C//DTD SVG 20010904//EN"
 "http://www.w3.org/TR/2001/REC-SVG-20010904/DTD/svg10.dtd">
<svg version="1.0" xmlns="http://www.w3.org/2000/svg"
 width="1087.000000pt" height="1080.000000pt" viewBox="0 0 1087.000000 1080.000000"
 preserveAspectRatio="xMidYMid meet">

<g transform="translate(0.000000,1080.000000) scale(0.100000,-0.100000)"
fill="#000000" stroke="none">
<path d="M5260 10754 c-14 -1 -106 -8 -205 -14 -99 -7 -272 -25 -385 -42 -272
-40 -259 -38 -527 -99 -97 -22 -409 -118 -523 -160 -106 -40 -235 -92 -288
-115 -29 -13 -55 -24 -58 -24 -10 0 -367 -179 -429 -215 -33 -19 -67 -38 -75
-42 -8 -3 -33 -18 -55 -32 -22 -13 -49 -30 -60 -36 -63 -35 -386 -255 -452
-309 -10 -8 -56 -45 -103 -82 -363 -289 -746 -695 -1018 -1077 -82 -116 -199
-293 -233 -354 -9 -15 -29 -50 -44 -78 -80 -139 -213 -402 -244 -480 -5 -11
-20 -45 -33 -75 -14 -30 -33 -77 -43 -105 -10 -27 -22 -54 -27 -59 -4 -6 -8
-18 -8 -28 0 -10 -4 -26 -9 -36 -8 -15 -27 -64 -51 -127 -4 -11 -13 -38 -19
-60 -7 -22 -18 -56 -26 -75 -7 -19 -18 -55 -25 -80 -7 -25 -18 -65 -25 -90
-26 -92 -35 -128 -60 -235 -35 -151 -41 -185 -60 -300 -9 -55 -20 -122 -25
-150 -23 -122 -49 -462 -54 -700 -4 -225 25 -678 55 -825 4 -25 15 -90 24
-145 24 -159 66 -351 105 -485 11 -36 22 -78 26 -95 10 -48 106 -333 134 -400
5 -11 21 -54 36 -95 15 -41 42 -106 60 -145 17 -38 40 -88 49 -110 24 -54 115
-238 151 -303 46 -85 60 -109 137 -237 29 -49 205 -314 234 -355 104 -142 200
-260 354 -436 188 -215 572 -570 739 -684 19 -13 37 -27 40 -30 22 -25 392
-274 485 -325 22 -13 65 -37 95 -54 30 -17 134 -71 230 -119 172 -86 215 -105
378 -173 24 -10 44 -18 112 -44 25 -10 54 -21 65 -26 53 -22 302 -101 405
-128 325 -85 460 -111 820 -160 178 -24 424 -33 711 -28 306 7 412 14 614 42
194 27 226 32 310 50 44 9 100 21 125 26 92 18 280 68 415 109 39 12 81 24 95
27 14 3 30 9 35 13 6 4 35 15 65 24 47 15 85 29 205 76 11 4 42 18 68 29 26
12 67 29 90 37 42 16 247 113 342 162 69 35 103 54 233 131 62 36 121 71 130
76 50 28 240 159 342 234 365 270 702 593 991 951 137 170 154 193 289 395
168 251 216 338 432 779 16 33 60 140 107 261 5 11 16 37 25 58 9 21 16 46 16
57 0 10 5 22 10 25 6 3 10 16 10 29 0 12 4 26 9 32 5 5 16 36 26 69 10 33 27
87 37 120 11 33 24 76 28 95 5 19 16 62 25 95 26 97 32 123 66 295 67 347 97
648 98 1015 2 428 -27 715 -120 1175 -12 56 -76 315 -89 355 -87 272 -152 453
-218 605 -22 53 -141 303 -152 320 -5 8 -34 65 -65 125 -32 61 -66 122 -76
137 -11 14 -19 29 -19 32 0 4 -8 19 -19 34 -10 15 -38 59 -62 97 -115 184
-331 475 -483 650 -109 126 -417 438 -496 501 -19 16 -60 51 -90 78 -30 27
-77 66 -105 87 -27 21 -75 57 -105 80 -136 105 -454 321 -520 352 -8 4 -31 17
-50 29 -76 48 -413 219 -515 263 -22 9 -53 22 -70 29 -142 61 -237 97 -435
162 -100 33 -243 75 -320 93 -419 99 -622 130 -1015 156 -195 13 -424 17 -495
9z m1691 -2338 c46 -22 105 -76 836 -780 111 -106 136 -153 137 -246 0 -102
-22 -135 -199 -300 -143 -133 -568 -534 -658 -620 -85 -82 -142 -110 -222
-110 -175 0 -293 162 -243 334 12 42 78 113 316 340 74 71 90 91 78 98 -8 5
-627 7 -1378 5 -1160 -3 -1371 -5 -1418 -18 -32 -8 -56 -21 -58 -29 -1 -9 652
-670 1523 -1540 1319 -1319 1527 -1523 1542 -1514 33 21 103 137 142 238 62
159 71 232 71 599 0 303 1 319 21 363 97 205 384 195 470 -16 11 -28 14 -108
14 -400 0 -313 -3 -378 -18 -460 -47 -239 -142 -449 -297 -650 -15 -19 -30
-41 -34 -48 -5 -9 42 -64 147 -170 177 -180 201 -216 201 -312 0 -190 -182
-306 -364 -233 -24 10 -732 711 -2285 2266 -1238 1239 -2262 2268 -2276 2287
-69 94 -62 216 18 310 72 84 196 113 293 69 31 -14 102 -77 231 -205 l186
-186 44 22 c24 13 55 26 69 30 14 5 59 20 100 35 41 15 118 36 170 48 93 21
118 21 1493 24 1025 3 1397 7 1397 15 0 6 -81 90 -180 186 -197 192 -230 238
-230 328 0 107 46 183 140 232 58 31 71 34 126 29 33 -2 76 -12 95 -21z
m-3634 -1718 c200 -200 195 -191 167 -288 -13 -43 -17 -133 -23 -425 -6 -354
-8 -372 -28 -411 -96 -180 -361 -179 -453 2 -25 49 -25 51 -28 369 -4 351 4
459 45 619 39 150 107 316 131 316 4 0 89 -82 189 -182z m791 -2243 c62 -19
113 -61 150 -124 23 -39 27 -57 27 -121 0 -64 -5 -83 -27 -120 -23 -38 -155
-170 -340 -339 -27 -24 -48 -47 -48 -52 0 -5 535 -9 1227 -9 l1227 0 228 -227
c125 -125 228 -233 228 -240 0 -41 -87 -43 -1509 -44 -740 0 -1356 -2 -1368
-5 -13 -4 -23 -10 -23 -15 0 -5 81 -89 181 -186 100 -98 190 -196 202 -218 29
-56 29 -174 0 -230 -47 -90 -127 -139 -228 -139 -110 -1 -76 -30 -751 616
-204 195 -287 282 -304 315 -32 64 -36 128 -15 194 22 66 48 93 515 529 85 79
196 183 245 230 50 47 109 102 132 124 41 39 125 75 174 76 14 0 49 -7 77 -15z"/>
</g>
</svg>
